<?xml version="1.0" encoding="UTF-8"?>
<svg id="Calque_1" xmlns="http://www.w3.org/2000/svg" version="1.1" viewBox="0 0 1920 1080">
  <!-- Generator: Adobe Illustrator 29.0.1, SVG Export Plug-In . SVG Version: 2.1.0 Build 192)  -->
  <defs>
    <style>
      .st0 {
        fill: #fff;
      }
    </style>
  </defs>
  <path class="st0" d="M1001,503v73h-73v-73h73ZM955.71,513.21c-3.02.69-5.27,4.42-7.75,5.25-4.25,1.43-8.34-.99-11.18,3.82-2.48,4.2-2.32,20.84-1.82,26.26.53,5.74,2.34,9.75,8.52,10.48,8.61,1.02,32.43,1.01,41.05,0,3.11-.37,6.52-2.3,7.72-5.28,1.63-4.05,1.51-28.9-1.21-32.27-3.1-3.84-7.64-1.48-11.02-2.98-1.97-.88-3.21-4.49-6.72-5.28-2.85-.64-14.74-.65-17.58,0Z"/>
  <path d="M955.71,513.21c2.84-.65,14.73-.64,17.58,0,3.51.79,4.75,4.4,6.72,5.28,3.38,1.5,7.92-.86,11.02,2.98,2.73,3.37,2.85,28.22,1.21,32.27-1.2,2.98-4.61,4.92-7.72,5.28-8.62,1.01-32.43,1.02-41.05,0-6.18-.73-7.98-4.75-8.52-10.48-.5-5.42-.66-22.06,1.82-26.26,2.84-4.81,6.93-2.39,11.18-3.82,2.48-.83,4.73-4.57,7.75-5.25ZM941,525.5v27.5c2.21.15,4.22.88,6.46,1.04,8.05.59,29.5,1.1,36.79-.26,1.05-.2,2.22-.49,2.83-1.45,1.26-1.98,1.4-21.64.66-24.57-1.55-6.13-5.83-2.74-10.04-3.96-2.29-.66-4.1-4.92-6.41-5.59-2.16-.63-13.38-.54-15.28.31s-3.54,4.65-5.72,5.28c-3.08.89-7.07-1.13-9.3,1.7Z"/>
  <path class="st0" d="M941,525.5c2.23-2.83,6.22-.81,9.3-1.7,2.18-.63,3.87-4.44,5.72-5.28s13.12-.95,15.28-.31c2.31.68,4.12,4.93,6.41,5.59,4.2,1.21,8.48-2.17,10.04,3.96.74,2.93.6,22.6-.66,24.57-.61.96-1.78,1.26-2.83,1.45-7.29,1.36-28.74.85-36.79.26-2.24-.16-4.25-.89-6.46-1.04v-27.5ZM979.14,527.14c-2.34,1.48-.59,8.7,3.86,6.4,4.94-2.55.43-9.11-3.86-6.4ZM960.71,528.22c-8.04,1.84-9.41,15.11.03,18.58,15.83,5.82,19.18-22.97-.03-18.58Z"/>
  <path d="M960.71,528.22c19.21-4.39,15.86,24.41.03,18.58-9.44-3.47-8.07-16.75-.03-18.58ZM958.3,542.71c6.5,8.06,18.99-4.17,10.66-11.18-7.12-5.99-16.05,4.5-10.66,11.18Z"/>
  <path d="M979.14,527.14c4.29-2.71,8.8,3.85,3.86,6.4-4.44,2.29-6.2-4.92-3.86-6.4Z"/>
  <path class="st0" d="M958.3,542.71c-5.38-6.68,3.55-17.17,10.66-11.18,8.32,7.01-4.17,19.24-10.66,11.18Z"/>
</svg>