<?xml version="1.0" encoding="UTF-8"?>
<svg id="Calque_1" xmlns="http://www.w3.org/2000/svg" version="1.1" viewBox="0 0 1920 1080">
  <!-- Generator: Adobe Illustrator 29.0.1, SVG Export Plug-In . SVG Version: 2.1.0 Build 192)  -->
  <defs>
    <style>
      .st0 {
        fill: #fff;
      }
    </style>
  </defs>
  <path class="st0" d="M1013,508v71h-107v-71h107ZM953.56,562.59c2.06-1.87,3.19-5.4,6.97-5.57,4.39.12,18.53,24.95,20.51,3.52.8-8.63.91-27.54-.04-36.04-.48-4.36-1.83-8.25-6.28-9.72-3.91-1.3-22.68-1.42-27.17-.72-5.53.87-7.13,5.46-7.6,10.4-.67,7.11-1.09,33.75.25,39.82,2.17,9.85,9.55,1.74,13.34-1.7Z"/>
  <path d="M953.56,562.59c-3.79,3.44-11.17,11.55-13.34,1.7-1.34-6.08-.92-32.71-.25-39.82.46-4.94,2.06-9.53,7.6-10.4,4.49-.71,23.26-.58,27.17.72,4.45,1.47,5.79,5.37,6.28,9.72.94,8.51.84,27.41.04,36.04-1.99,21.43-16.12-3.41-20.51-3.52-3.78.18-4.91,3.7-6.97,5.57ZM975,551v-29.5l-1.5-1.5h-27.5v31c4.22-3,8.87-9.1,14.52-9.03,6.24.07,9.19,6.96,14.48,9.03ZM974.99,562c2.67-5.73-7.9-16.27-12.56-16.96-7.23-1.07-19.07,9.48-15.93,16.96,11.08-13.97,17.07-12.52,28.49,0Z"/>
  <path class="st0" d="M975,551c-5.29-2.07-8.23-8.96-14.48-9.03-5.66-.07-10.3,6.03-14.52,9.03v-31h27.5l1.5,1.5v29.5Z"/>
  <path class="st0" d="M974.99,562c-11.42-12.52-17.42-13.97-28.49,0-3.14-7.48,8.7-18.02,15.93-16.96,4.67.69,15.23,11.23,12.56,16.96Z"/>
</svg>