<?xml version="1.0" encoding="UTF-8"?>
<svg id="Calque_1" xmlns="http://www.w3.org/2000/svg" version="1.1" viewBox="0 0 595.28 841.89">
  <!-- Generator: Adobe Illustrator 29.0.1, SVG Export Plug-In . SVG Version: 2.1.0 Build 192)  -->
  <defs>
    <style>
      .st0 {
        fill: #fff;
      }
    </style>
  </defs>
  <path class="st0" d="M347.49,358.5v76.99h-93.99v-76.99h93.99ZM329.82,367.16c-.52-.34-.77-1.8-1.98-2.45-4.21-2.27-16.99-4.89-21.78-4.13-28.49,4.47-42.85,38.85-22.95,60.82,17.78,19.64,53.42,13.4,61.88-11.9,5.7-17.04-.75-32.93-15.16-42.33Z"/>
  <path d="M329.82,367.16c14.41,9.4,20.86,25.29,15.16,42.33-8.46,25.3-44.09,31.55-61.88,11.9-19.9-21.98-5.54-56.35,22.95-60.82,4.79-.75,17.57,1.87,21.78,4.13,1.21.65,1.46,2.11,1.98,2.45ZM295.8,417.17c.5.33,9.69,4.18,10.24,4.28,24.36,4.62,39.87-28.76,18.95-43.95-17.16-12.46-40.45.63-39.25,21.25.34,5.75,5.2,15.25,10.06,18.41Z"/>
  <path class="st0" d="M295.8,417.17c-4.87-3.16-9.73-12.66-10.06-18.41-1.2-20.62,22.09-33.71,39.25-21.25,20.92,15.19,5.41,48.57-18.95,43.95-.55-.1-9.73-3.96-10.24-4.28ZM317.84,384.16c-2.79-2.65-2.32-5.48-8.2-2.51,2.3,14.53-16.21.85-18.07,12.42s8.43,7.61,16.29,8.57c2.53.84.2,12.06,8.62,7.34.54-.3,7.77-7.79,8.66-8.83.95-1.12,3.27-3.97,3.41-5.19-1.55-4.45-7.1-8.36-10.72-11.8Z"/>
  <path d="M317.84,384.16c3.62,3.44,9.17,7.34,10.72,11.8-.14,1.22-2.46,4.07-3.41,5.19-.88,1.04-8.12,8.53-8.66,8.83-8.42,4.72-6.09-6.5-8.62-7.34-7.86-.96-18.15,3.02-16.29-8.57s20.37,2.11,18.07-12.42c5.88-2.97,5.41-.14,8.2,2.51Z"/>
</svg>