<?xml version="1.0" encoding="UTF-8"?>
<svg id="Calque_1" xmlns="http://www.w3.org/2000/svg" version="1.1" viewBox="0 0 1920 1080">
  <!-- Generator: Adobe Illustrator 29.0.1, SVG Export Plug-In . SVG Version: 2.1.0 Build 192)  -->
  <defs>
    <style>
      .st0 {
        fill: #fff;
      }
    </style>
  </defs>
  <path class="st0" d="M997,506v75h-75v-75h75ZM932,570h14.5c6.17,0,31.48-29.96,37.98-35.02,3.11-4.51-7.09-14.32-10.42-16.54-2.78-1.85-4.53-2.28-7.62-.49-4.89,6.64-34.44,31.3-34.44,37.55v14.5Z"/>
  <path d="M932,570v-14.5c0-6.25,29.55-30.91,34.44-37.55,3.08-1.79,4.84-1.36,7.62.49,3.33,2.22,13.52,12.03,10.42,16.54-6.5,5.06-31.81,35.02-37.98,35.02h-14.5ZM969.64,523.07l-3.61,3.43,9.47,9.47,3.43-4.34-9.29-8.56ZM940.01,553.98l3.69,1.87c.87.3,1.24-.38,1.82-.77,1.77-1.18,21.38-20.64,22.01-22.06.84-1.88-1.62-5.16-5.08-3.07-1.58.96-20.17,19.63-21.47,21.53-.57.84-1.37,1.05-.97,2.5ZM969.64,534.08l-23.2,22.93v1.98s3.06,2.98,3.06,2.98l23.03-22.99v-2.96s-2.89-1.93-2.89-1.93ZM947,563.99l-8.99-8.99c-.97,7.8,1.27,9.95,8.99,8.99Z"/>
  <path class="st0" d="M940.01,553.98c-.4-1.46.4-1.66.97-2.5,1.3-1.9,19.89-20.57,21.47-21.53,3.46-2.1,5.92,1.19,5.08,3.07-.63,1.42-20.24,20.88-22.01,22.06-.58.39-.95,1.08-1.82.77l-3.69-1.87Z"/>
  <polygon class="st0" points="969.64 534.08 972.53 536.01 972.53 538.98 949.5 561.97 946.44 558.99 946.44 557.01 969.64 534.08"/>
  <polygon class="st0" points="969.64 523.07 978.93 531.64 975.5 535.97 966.03 526.5 969.64 523.07"/>
  <path class="st0" d="M947,563.99c-7.72.96-9.96-1.19-8.99-8.99l8.99,8.99Z"/>
</svg>